<svg width="35" height="35" viewBox="0 0 35 35" fill="none" xmlns="http://www.w3.org/2000/svg">
<path d="M24.6355 24.5L23.2865 27.0365L29.8911 25.9567C28.5583 25.2882 26.754 24.8105 24.6355 24.5ZM7.62195 25.053C4.56295 25.8598 2.625 27.1817 2.625 29.1452C2.62626 29.5679 2.71866 29.9854 2.8959 30.3691L13.4956 28.6367L7.62195 25.053ZM32.1265 28L17.374 30.4045L21.2646 34.8306C27.6535 34.2583 32.375 32.2175 32.375 29.1452C32.375 28.7357 32.2868 28.3549 32.1265 28ZM14.8813 30.8196L4.9133 32.4488C7.5481 34.0809 12.1985 35 17.5 35C17.8213 35 18.1353 34.9909 18.4517 34.9843L14.8813 30.8196Z" fill="#2B9401"/>
<path d="M17.5005 0C11.7955 0 7.11426 4.6662 7.11426 10.3583C7.11426 12.564 7.82021 14.6188 9.01161 16.3027L8.97591 16.247L15.7166 27.8989L15.7446 27.9363C16.0106 28.2832 16.2696 28.5565 16.5744 28.7581C16.8789 28.9594 17.2569 29.0805 17.6276 29.0434C18.3689 28.9692 18.8232 28.4456 19.254 27.8614L19.2768 27.831L26.709 15.182L26.7136 15.1736C26.8879 14.8586 27.0163 14.5383 27.1255 14.2261C27.6264 12.9981 27.8843 11.6845 27.885 10.3583C27.8854 4.6662 23.2055 0 17.5005 0ZM17.5009 1.4525C22.4149 1.4525 26.4329 5.46175 26.4329 10.3583C26.4329 11.5367 26.1991 12.6613 25.7759 13.6938L25.7682 13.712L25.7619 13.7302C25.6674 14.0011 25.5649 14.2503 25.4431 14.4708L18.0738 27.0113C17.7336 27.4642 17.4851 27.5979 17.483 27.5982C17.482 27.5982 17.4781 27.614 17.3766 27.5464C17.2783 27.4817 17.1106 27.3217 16.9153 27.0704L10.216 15.491L10.1974 15.4644C9.17121 14.0136 8.56676 12.2553 8.56676 10.3586C8.56676 5.4621 12.5865 1.45285 17.5005 1.45285M17.5005 4.51395C14.2574 4.51395 11.6405 7.12145 11.6405 10.3586C11.6405 13.5958 14.2574 16.2033 17.5005 16.2033C20.7436 16.2033 23.3595 13.5958 23.3595 10.3583C23.3595 7.12145 20.7436 4.51395 17.5005 4.51395ZM17.5005 5.96645C19.975 5.96645 21.907 7.8939 21.907 10.3586C21.907 12.8233 19.9754 14.7508 17.5005 14.7508C15.0253 14.7508 13.093 12.823 13.093 10.3583C13.093 7.89425 15.0253 5.96645 17.5005 5.96645Z" fill="#2B9401"/>
</svg>
