<svg width="35" height="35" viewBox="0 0 35 35" fill="none" xmlns="http://www.w3.org/2000/svg">
<path d="M17.5003 16.7709C19.5139 16.7709 21.1462 15.1386 21.1462 13.125C21.1462 11.1115 19.5139 9.47919 17.5003 9.47919C15.4868 9.47919 13.8545 11.1115 13.8545 13.125C13.8545 15.1386 15.4868 16.7709 17.5003 16.7709Z" stroke="#34A853" stroke-width="2" stroke-linecap="round" stroke-linejoin="round"/>
<path d="M13.1251 24.7917L26.2501 8.75M8.75011 17.5L20.4168 3.64583M10.2084 7.29167L14.5834 10.9375M17.5147 32.0833C16.9984 32.0833 16.7578 31.8631 16.4924 31.1223C15.7924 28.6577 14.4828 26.5285 12.8947 24.5292C11.4568 22.6085 9.33636 20.4225 8.23386 17.9317C5.17136 11.1635 9.91824 2.905 17.4899 2.91667C25.2701 2.89479 29.9484 11.4494 26.6234 18.2948C25.6466 20.0217 24.5042 21.6495 23.2124 23.1554C21.1984 25.534 19.3887 28.1094 18.5297 31.1267C18.3314 31.7085 18.0776 32.0833 17.5147 32.0833Z" stroke="#34A853" stroke-width="2" stroke-linecap="round" stroke-linejoin="round"/>
</svg>
