<svg width="35" height="35" viewBox="0 0 35 35" fill="none" xmlns="http://www.w3.org/2000/svg">
<path d="M17.5 9.02344C16.4725 9.02344 15.468 9.32814 14.6136 9.899C13.7593 10.4699 13.0934 11.2813 12.7002 12.2306C12.3069 13.1799 12.2041 14.2245 12.4045 15.2323C12.605 16.2401 13.0998 17.1658 13.8264 17.8924C14.5529 18.619 15.4787 19.1138 16.4864 19.3142C17.4942 19.5147 18.5388 19.4118 19.4882 19.0186C20.4375 18.6254 21.2489 17.9595 21.8197 17.1051C22.3906 16.2507 22.6953 15.2463 22.6953 14.2188C22.6953 12.8409 22.148 11.5194 21.1736 10.5451C20.1993 9.5708 18.8779 9.02344 17.5 9.02344ZM17.5 17.7734C16.7969 17.7734 16.1097 17.565 15.5251 17.1744C14.9406 16.7838 14.4849 16.2286 14.2159 15.5791C13.9469 14.9295 13.8765 14.2148 14.0136 13.5253C14.1508 12.8357 14.4893 12.2023 14.9865 11.7052C15.4836 11.2081 16.117 10.8695 16.8065 10.7324C17.4961 10.5952 18.2108 10.6656 18.8603 10.9346C19.5099 11.2037 20.065 11.6593 20.4556 12.2439C20.8462 12.8284 21.0547 13.5157 21.0547 14.2188C21.0547 15.1615 20.6802 16.0657 20.0135 16.7323C19.3469 17.3989 18.4428 17.7734 17.5 17.7734ZM17.5 2.46094C14.3827 2.46456 11.3942 3.70448 9.18997 5.90872C6.98573 8.11295 5.74581 11.1015 5.74219 14.2188C5.74219 18.4447 7.70273 22.9332 11.4119 27.1988C13.086 29.1336 14.9702 30.8761 17.0297 32.3941C17.1675 32.4906 17.3317 32.5424 17.5 32.5424C17.6683 32.5424 17.8325 32.4906 17.9703 32.3941C20.0298 30.8761 21.914 29.1336 23.5881 27.1988C27.2973 22.9332 29.2578 18.4488 29.2578 14.2188C29.2542 11.1015 28.0143 8.11295 25.81 5.90872C23.6058 3.70448 20.6173 2.46456 17.5 2.46094ZM17.5 30.6947C15.4492 29.1115 7.38281 22.3699 7.38281 14.2188C7.38281 11.5355 8.44873 8.96216 10.3461 7.06482C12.2434 5.16748 14.8168 4.10156 17.5 4.10156C20.1832 4.10156 22.7566 5.16748 24.6539 7.06482C26.5513 8.96216 27.6172 11.5355 27.6172 14.2188C27.6172 22.3699 19.5508 29.1115 17.5 30.6947Z" fill="#EA4335"/>
</svg>
